<svg width="141" height="56" viewBox="0 0 141 56" fill="none" xmlns="http://www.w3.org/2000/svg">
<g clip-path="url(#clip0_568_1426)">
<path fill-rule="evenodd" clip-rule="evenodd" d="M39 0H26V13H13H0V26V39V52H13H26V39H39H52V26V13V0H39ZM13 39H26V26H39V13H26V26H13V39Z" fill="white"/>
<path d="M78.9801 2.21603V16.304C78.9801 16.856 79.1401 17.248 79.4601 17.48C79.7881 17.712 80.2281 17.828 80.7801 17.828C81.1241 17.828 81.4561 17.792 81.7761 17.72C82.0961 17.64 82.4001 17.544 82.6881 17.432L83.4681 19.592C83.0681 19.792 82.5801 19.968 82.0041 20.12C81.4361 20.28 80.7761 20.36 80.0241 20.36C78.6401 20.36 77.5921 19.964 76.8801 19.172C76.1681 18.38 75.812 17.312 75.812 15.968V4.46003H72.0081V2.21603H78.9801ZM94.6311 7.29203V17.756H97.979V20H87.743V17.756H91.4631V9.53603H87.8631V7.29203H94.6311ZM92.5791 0.884033C93.1631 0.884033 93.6351 1.06403 93.9951 1.42403C94.3631 1.78403 94.5471 2.23203 94.5471 2.76803C94.5471 3.30403 94.3631 3.75603 93.9951 4.12403C93.6351 4.48403 93.1631 4.66403 92.5791 4.66403C91.9951 4.66403 91.5191 4.48403 91.1511 4.12403C90.7831 3.75603 90.5991 3.30403 90.5991 2.76803C90.5991 2.23203 90.7831 1.78403 91.1511 1.42403C91.5191 1.06403 91.9951 0.884033 92.5791 0.884033ZM113.281 7.29203L108.565 12.956L113.737 20H110.005L105.109 13.04L109.789 7.29203H113.281ZM104.929 1.88003V20H101.761V2.21603L104.929 1.88003ZM118.804 14.612C118.868 15.404 119.048 16.048 119.344 16.544C119.648 17.04 120.036 17.404 120.508 17.636C120.98 17.868 121.504 17.984 122.08 17.984C122.688 17.984 123.26 17.888 123.796 17.696C124.332 17.504 124.86 17.236 125.38 16.892L126.7 18.704C126.108 19.2 125.4 19.6 124.576 19.904C123.76 20.208 122.86 20.36 121.876 20.36C120.5 20.36 119.34 20.076 118.396 19.508C117.46 18.94 116.752 18.152 116.272 17.144C115.792 16.136 115.552 14.976 115.552 13.664C115.552 12.4 115.788 11.26 116.26 10.244C116.732 9.22803 117.412 8.42403 118.3 7.83203C119.188 7.23203 120.26 6.93203 121.516 6.93203C122.684 6.93203 123.692 7.18803 124.54 7.70003C125.388 8.21203 126.044 8.94803 126.508 9.90803C126.972 10.86 127.204 12.008 127.204 13.352C127.204 13.568 127.196 13.788 127.18 14.012C127.172 14.236 127.16 14.436 127.144 14.612H118.804ZM121.528 9.16403C120.76 9.16403 120.128 9.44003 119.632 9.99203C119.144 10.536 118.856 11.4 118.768 12.584H124.12C124.104 11.512 123.88 10.676 123.448 10.076C123.024 9.46803 122.384 9.16403 121.528 9.16403ZM137.863 1.88003L141.031 2.21603V20H138.223L138.031 18.5C137.639 19.06 137.147 19.512 136.555 19.856C135.963 20.192 135.275 20.36 134.491 20.36C133.419 20.36 132.531 20.08 131.827 19.52C131.131 18.96 130.611 18.176 130.267 17.168C129.931 16.152 129.763 14.972 129.763 13.628C129.763 12.332 129.963 11.18 130.363 10.172C130.763 9.16403 131.339 8.37203 132.09 7.79603C132.851 7.22003 133.751 6.93203 134.791 6.93203C135.415 6.93203 135.983 7.04003 136.495 7.25603C137.007 7.47203 137.463 7.79203 137.863 8.21603V1.88003ZM135.643 9.29603C134.843 9.29603 134.211 9.64403 133.747 10.34C133.291 11.028 133.063 12.128 133.063 13.64C133.063 14.704 133.159 15.556 133.351 16.196C133.543 16.828 133.815 17.284 134.167 17.564C134.519 17.844 134.935 17.984 135.415 17.984C135.943 17.984 136.407 17.828 136.807 17.516C137.215 17.196 137.567 16.8 137.863 16.328V10.544C137.567 10.152 137.235 9.84803 136.867 9.63203C136.507 9.40803 136.099 9.29603 135.643 9.29603ZM83.8881 36.504L84.6801 38.976C84.2001 39.144 83.6601 39.264 83.0601 39.336C82.4601 39.4 81.7721 39.432 80.9961 39.432C81.7721 39.768 82.3601 40.196 82.7601 40.716C83.1681 41.228 83.3721 41.88 83.3721 42.672C83.3721 43.496 83.1601 44.232 82.7361 44.88C82.3201 45.528 81.7241 46.036 80.9481 46.404C80.1801 46.772 79.2641 46.956 78.2001 46.956C77.8721 46.956 77.5801 46.94 77.3241 46.908C77.0681 46.876 76.8201 46.832 76.5801 46.776C76.4201 46.864 76.2961 46.992 76.2081 47.16C76.1201 47.328 76.076 47.5 76.076 47.676C76.076 47.916 76.1681 48.124 76.3521 48.3C76.5441 48.468 76.952 48.552 77.576 48.552H79.7361C80.6721 48.552 81.4921 48.712 82.1961 49.032C82.9081 49.344 83.4601 49.768 83.8521 50.304C84.2521 50.84 84.4521 51.456 84.4521 52.152C84.4521 53.432 83.896 54.432 82.784 55.152C81.672 55.872 80.0481 56.232 77.9121 56.232C76.3841 56.232 75.1921 56.076 74.3361 55.764C73.4881 55.452 72.892 54.996 72.548 54.396C72.204 53.804 72.0321 53.088 72.0321 52.248H74.8521C74.8521 52.656 74.9321 52.992 75.0921 53.256C75.2601 53.52 75.5681 53.716 76.0161 53.844C76.4721 53.972 77.1241 54.036 77.9721 54.036C78.8201 54.036 79.4841 53.968 79.9641 53.832C80.4521 53.696 80.7961 53.5 80.9961 53.244C81.1961 52.996 81.2961 52.704 81.2961 52.368C81.2961 51.912 81.1041 51.556 80.7201 51.3C80.3361 51.044 79.7921 50.916 79.0881 50.916H76.9881C75.7081 50.916 74.7761 50.668 74.1921 50.172C73.6081 49.668 73.3161 49.088 73.3161 48.432C73.3161 47.984 73.4361 47.556 73.6761 47.148C73.9241 46.732 74.2761 46.38 74.7321 46.092C73.9481 45.676 73.3801 45.18 73.0281 44.604C72.6841 44.02 72.5121 43.316 72.5121 42.492C72.5121 41.572 72.7441 40.772 73.2081 40.092C73.6721 39.412 74.3161 38.884 75.1401 38.508C75.9641 38.132 76.9121 37.944 77.9841 37.944C78.9681 37.952 79.8041 37.892 80.4921 37.764C81.1881 37.636 81.8001 37.46 82.3281 37.236C82.8641 37.012 83.3841 36.768 83.8881 36.504ZM78.0441 40.056C77.2921 40.056 76.7161 40.276 76.3161 40.716C75.9241 41.156 75.7281 41.74 75.7281 42.468C75.7281 43.22 75.932 43.816 76.34 44.256C76.748 44.696 77.3201 44.916 78.0561 44.916C78.7841 44.916 79.3361 44.704 79.7121 44.28C80.0961 43.848 80.2881 43.232 80.2881 42.432C80.2881 41.632 80.0961 41.036 79.7121 40.644C79.3361 40.252 78.7801 40.056 78.0441 40.056ZM87.4431 51V48.804H89.2311V40.476H87.4431V38.292H91.6431L92.2311 41.208C92.6951 40.128 93.2791 39.316 93.9831 38.772C94.6871 38.22 95.5711 37.944 96.6351 37.944C97.0431 37.944 97.403 37.976 97.715 38.04C98.035 38.104 98.3391 38.188 98.6271 38.292L97.6791 40.956C97.4311 40.892 97.1951 40.844 96.9711 40.812C96.7471 40.772 96.495 40.752 96.215 40.752C95.335 40.752 94.5671 41.096 93.9111 41.784C93.2631 42.464 92.7591 43.388 92.3991 44.556V48.804H94.9311V51H87.4431ZM95.951 43.248V39.876L96.3831 38.292H98.6271L98.0631 43.248H95.951ZM111.853 47.652C111.853 48.14 111.925 48.496 112.069 48.72C112.213 48.936 112.445 49.1 112.765 49.212L112.081 51.336C111.401 51.264 110.821 51.096 110.341 50.832C109.869 50.56 109.505 50.156 109.249 49.62C108.769 50.204 108.161 50.64 107.425 50.928C106.697 51.216 105.933 51.36 105.133 51.36C103.837 51.36 102.809 50.992 102.049 50.256C101.289 49.52 100.909 48.564 100.909 47.388C100.909 46.036 101.437 44.996 102.493 44.268C103.557 43.532 105.061 43.164 107.005 43.164H108.781V42.48C108.781 41.728 108.549 41.184 108.085 40.848C107.621 40.504 106.953 40.332 106.081 40.332C105.673 40.332 105.161 40.388 104.545 40.5C103.937 40.604 103.309 40.768 102.661 40.992L101.905 38.82C102.713 38.516 103.525 38.292 104.341 38.148C105.165 38.004 105.913 37.932 106.585 37.932C108.369 37.932 109.693 38.312 110.557 39.072C111.421 39.824 111.853 40.892 111.853 42.276V47.652ZM106.165 49.068C106.645 49.068 107.129 48.932 107.617 48.66C108.113 48.388 108.501 48.008 108.781 47.52V45.048H107.533C106.357 45.048 105.505 45.236 104.977 45.612C104.457 45.988 104.197 46.52 104.197 47.208C104.197 47.8 104.365 48.26 104.701 48.588C105.037 48.908 105.525 49.068 106.165 49.068ZM122.152 33.216V47.304C122.152 47.856 122.312 48.248 122.632 48.48C122.96 48.712 123.4 48.828 123.952 48.828C124.296 48.828 124.628 48.792 124.948 48.72C125.268 48.64 125.572 48.544 125.86 48.432L126.64 50.592C126.24 50.792 125.752 50.968 125.176 51.12C124.608 51.28 123.948 51.36 123.196 51.36C121.812 51.36 120.764 50.964 120.052 50.172C119.34 49.38 118.984 48.312 118.984 46.968V35.46H115.18V33.216H122.152ZM136.543 33.216V47.304C136.543 47.856 136.703 48.248 137.023 48.48C137.351 48.712 137.791 48.828 138.343 48.828C138.687 48.828 139.019 48.792 139.339 48.72C139.659 48.64 139.963 48.544 140.251 48.432L141.031 50.592C140.631 50.792 140.143 50.968 139.567 51.12C138.999 51.28 138.339 51.36 137.587 51.36C136.203 51.36 135.155 50.964 134.443 50.172C133.731 49.38 133.375 48.312 133.375 46.968V35.46H129.571V33.216H136.543Z" fill="white"/>
</g>
<defs>
<clipPath id="clip0_568_1426">
<rect width="141" height="56" fill="white"/>
</clipPath>
</defs>
</svg>
