<svg width="100" height="100" viewBox="0 0 100 100" fill="none" xmlns="http://www.w3.org/2000/svg">
<rect width="100" height="100" rx="18" fill="#4F7DF5"/>
<path d="M42.888 59C42.3973 59 41.9707 58.8187 41.608 58.456L35.208 52.056C34.8667 51.7147 34.696 51.288 34.696 50.776V24.536C34.696 24.0453 34.8667 23.6187 35.208 23.256L41.608 16.856C41.9707 16.5147 42.3973 16.344 42.888 16.344H62.184C62.7173 16.344 62.984 16.6107 62.984 17.144V27.768C62.984 28.3013 62.7173 28.568 62.184 28.568H48.712C48.4133 28.568 48.1573 28.6747 47.944 28.888C47.7307 29.08 47.624 29.3253 47.624 29.624V45.72C47.624 45.9973 47.7307 46.2427 47.944 46.456C48.1573 46.6693 48.4133 46.776 48.712 46.776H53.576V41.528L50.696 41.464C50.1627 41.464 49.896 41.1973 49.896 40.664V32.824C49.896 32.2907 50.1627 32.024 50.696 32.024H64.232C64.7653 32.024 65.032 32.2907 65.032 32.824V50.776C65.032 51.288 64.8507 51.7147 64.488 52.056L58.088 58.456C57.7467 58.8187 57.32 59 56.808 59H42.888Z" fill="white"/>
<path d="M34.77 79C34.61 79 34.4767 78.9433 34.37 78.83L32.37 76.83C32.2567 76.7233 32.2 76.59 32.2 76.43V65.92C32.2 65.7533 32.2833 65.67 32.45 65.67H35.28C35.4467 65.67 35.53 65.7533 35.53 65.92V76.32H37.77V65.92C37.77 65.7533 37.8533 65.67 38.02 65.67H40.85C41.0167 65.67 41.1 65.7533 41.1 65.92V76.32H43.33V65.92C43.33 65.7533 43.4133 65.67 43.58 65.67H46.42C46.5867 65.67 46.67 65.7533 46.67 65.92V76.43C46.67 76.59 46.6133 76.7233 46.5 76.83L44.5 78.83C44.3867 78.9433 44.2533 79 44.1 79H41.75C41.5967 79 41.4633 78.9433 41.35 78.83L39.67 77.15H39.2L37.52 78.83C37.4067 78.9433 37.2733 79 37.12 79H34.77ZM53.555 79C53.4883 79 53.415 78.99 53.335 78.97C53.2617 78.95 53.1917 78.9333 53.125 78.92L51.345 78.48L49.305 77.8C49.105 77.7333 49.005 77.54 49.005 77.22V70.57C49.005 70.41 49.0617 70.2767 49.175 70.17L51.175 68.17C51.2883 68.0567 51.4217 68 51.575 68H54.775C54.9283 68 55.0617 68.0567 55.175 68.17L57.175 70.17C57.2883 70.2767 57.345 70.41 57.345 70.57V74.67H51.975L51.905 76L53.325 76.47L55.875 76.65C55.9883 76.67 56.045 76.7467 56.045 76.88V78.75C56.045 78.9167 55.9617 79 55.795 79H53.555ZM53.155 73.1H53.345C53.6717 73.1 53.9317 72.9767 54.125 72.73C54.325 72.4833 54.425 72.15 54.425 71.73V71.53C54.425 71.1167 54.325 70.7867 54.125 70.54C53.9317 70.2933 53.6717 70.17 53.345 70.17H53.145C52.825 70.17 52.5683 70.2933 52.375 70.54C52.1883 70.7867 52.095 71.1167 52.095 71.53V71.73C52.095 72.15 52.1883 72.4833 52.375 72.73C52.5683 72.9767 52.8283 73.1 53.155 73.1ZM59.6766 79C59.5099 79 59.4266 78.9167 59.4266 78.75V65.92C59.4266 65.7533 59.5099 65.67 59.6766 65.67H62.3466C62.5132 65.67 62.5966 65.7533 62.5966 65.92V68.67L63.0966 68.17C63.2032 68.0567 63.3366 68 63.4966 68H65.0266C65.1799 68 65.3132 68.0567 65.4266 68.17L67.4266 70.17C67.5399 70.2767 67.5966 70.41 67.5966 70.57V76.43C67.5966 76.59 67.5399 76.7233 67.4266 76.83L65.4266 78.83C65.3132 78.9433 65.1799 79 65.0266 79H59.6766ZM62.5966 76.67H63.8566C64.0766 76.67 64.2266 76.6267 64.3066 76.54C64.3866 76.4533 64.4266 76.3 64.4266 76.08V70.92C64.4266 70.7 64.3866 70.5467 64.3066 70.46C64.2266 70.3733 64.0766 70.33 63.8566 70.33H63.1566C62.9432 70.33 62.7966 70.3733 62.7166 70.46C62.6366 70.5467 62.5966 70.7 62.5966 70.92V76.67Z" fill="white"/>
</svg>
