<svg width="640" height="640" viewBox="0 0 640 640" fill="none" xmlns="http://www.w3.org/2000/svg">
<path d="M96 176C96 149.5 117.5 128 144 128C170.5 128 192 149.5 192 176V288H448V176C448 149.5 469.5 128 496 128C522.5 128 544 149.5 544 176V192H560C586.5 192 608 213.5 608 240V288C625.7 288 640 302.3 640 320C640 337.7 625.7 352 608 352V400C608 426.5 586.5 448 560 448H544V464C544 490.5 522.5 512 496 512C469.5 512 448 490.5 448 464V352H192V464C192 490.5 170.5 512 144 512C117.5 512 96 490.5 96 464V448H80C53.5 448 32 426.5 32 400V352C14.3 352 0 337.7 0 320C0 302.3 14.3 288 32 288V240C32 213.5 53.5 192 80 192H96V176Z" fill="black"/>
</svg>
