<svg width="448" height="512" viewBox="0 0 448 512" fill="none" xmlns="http://www.w3.org/2000/svg">
<g clip-path="url(#clip0_16_2)">
<path d="M152 256V74.2C127.5 94.7 112 125.6 112 160V256H152ZM200 256H248V50.6C240.3 48.9 232.2 48 224 48C215.8 48 207.7 48.9 200 50.6V256ZM296 74.2V256H336V160C336 125.6 320.5 94.8 296 74.2ZM32 256H64V160C64 71.6 135.6 0 224 0C312.4 0 384 71.6 384 160V256H416C433.7 256 448 270.3 448 288V352C448 369.7 433.7 384 416 384V480C416 497.7 401.7 512 384 512C366.3 512 352 497.7 352 480V384H96V480C96 497.7 81.7 512 64 512C46.3 512 32 497.7 32 480V384C14.3 384 0 369.7 0 352V288C0 270.3 14.3 256 32 256Z" fill="black"/>
</g>
<defs>
<clipPath id="clip0_16_2">
<rect width="448" height="512" fill="white"/>
</clipPath>
</defs>
</svg>
