<svg width="572" height="480" viewBox="0 0 572 480" fill="none" xmlns="http://www.w3.org/2000/svg">
<path d="M515.509 184C546.409 184 571.509 209.1 571.509 240C571.509 270.9 546.409 296 515.509 296H388.209L229.009 469.6C222.909 476.2 214.409 480 205.409 480H161.709C150.809 480 143.109 469.3 146.509 458.9L200.809 296H101.109L48.3087 362C45.3087 365.8 40.7087 368 35.8087 368H16.0087C5.60869 368 -1.99131 358.2 0.508692 348.1L27.5087 240L0.508692 131.9C-2.09131 121.8 5.60869 112 16.0087 112H35.8087C40.7087 112 45.3087 114.2 48.3087 118L101.109 184H200.809L146.509 21.1C143.109 10.7 150.809 0 161.709 0H205.409C214.409 0 222.909 3.8 229.009 10.4L388.209 184H515.509Z" fill="black"/>
</svg>
