<svg width="640" height="640" viewBox="0 0 640 640" fill="none" xmlns="http://www.w3.org/2000/svg">
<path d="M448 128C554 128 640 214 640 320C640 426 554 512 448 512H192C86 512 0 426 0 320C0 214 86 128 192 128H448ZM192 240C178.7 240 168 250.7 168 264V296H136C122.7 296 112 306.7 112 320C112 333.3 122.7 344 136 344H168V376C168 389.3 178.7 400 192 400C205.3 400 216 389.3 216 376V344H248C261.3 344 272 333.3 272 320C272 306.7 261.3 296 248 296H216V264C216 250.7 205.3 240 192 240ZM432 336C414.3 336 400 350.3 400 368C400 385.7 414.3 400 432 400C449.7 400 464 385.7 464 368C464 350.3 449.7 336 432 336ZM496 240C478.3 240 464 254.3 464 272C464 289.7 478.3 304 496 304C513.7 304 528 289.7 528 272C528 254.3 513.7 240 496 240Z" fill="black"/>
</svg>
