<svg width="512" height="528" viewBox="0 0 512 528" fill="none" xmlns="http://www.w3.org/2000/svg">
<path d="M88 0C74.7 0 64 10.7 64 24C64 62.9 87.4 83.4 103.1 97.1L104.2 98.1C120.5 112.4 128 119.9 128 136C128 149.3 138.7 160 152 160C165.3 160 176 149.3 176 136C176 97.1 152.6 76.6 136.9 62.9L135.8 61.9C119.5 47.7 112 40.1 112 24C112 10.7 101.3 0 88 0ZM32 208C14.3 208 0 222.3 0 240V432C0 485 43 528 96 528H288C329.8 528 365.4 501.3 378.5 464H384C454.7 464 512 406.7 512 336C512 265.3 454.7 208 384 208H32ZM384 400V272C419.3 272 448 300.7 448 336C448 371.3 419.3 400 384 400ZM224 24C224 10.7 213.3 0 200 0C186.7 0 176 10.7 176 24C176 62.9 199.4 83.4 215.1 97.1L216.2 98.1C232.5 112.4 240 119.9 240 136C240 149.3 250.7 160 264 160C277.3 160 288 149.3 288 136C288 97.1 264.6 76.6 248.9 62.9L247.8 61.9C231.5 47.7 224 40.1 224 24Z" fill="black"/>
</svg>
