<svg width="320" height="512" viewBox="0 0 320 512" fill="none" xmlns="http://www.w3.org/2000/svg">
<g clip-path="url(#clip0_16_4)">
<path d="M64 160C64 107 107 64 160 64C213 64 256 107 256 160C256 202.7 228.1 238.9 189.5 251.4C161.1 260.6 128 286.7 128 328V352C128 369.7 142.3 384 160 384C177.7 384 192 369.7 192 352V328C192 326.3 192.6 323.9 195.5 320.7C198.5 317.4 203.4 314.2 209.2 312.3C273.5 291.6 320 231.3 320 160C320 71.6 248.4 0 160 0C71.6 0 0 71.6 0 160C0 177.7 14.3 192 32 192C49.7 192 64 177.7 64 160ZM160 512C182.1 512 200 494.1 200 472C200 449.9 182.1 432 160 432C137.9 432 120 449.9 120 472C120 494.1 137.9 512 160 512Z" fill="black"/>
</g>
<defs>
<clipPath id="clip0_16_4">
<rect width="320" height="512" fill="white"/>
</clipPath>
</defs>
</svg>
